<svg id="visual" viewBox="0 0 900 600" width="900" height="600" xmlns="http://www.w3.org/2000/svg" xmlns:xlink="http://www.w3.org/1999/xlink" version="1.1"><path d="M0 229L18.8 218C37.7 207 75.3 185 112.8 187C150.3 189 187.7 215 225.2 220C262.7 225 300.3 209 337.8 187C375.3 165 412.7 137 450.2 139C487.7 141 525.3 173 562.8 186C600.3 199 637.7 193 675.2 201C712.7 209 750.3 231 787.8 237C825.3 243 862.7 233 881.3 228L900 223L900 0L881.3 0C862.7 0 825.3 0 787.8 0C750.3 0 712.7 0 675.2 0C637.7 0 600.3 0 562.8 0C525.3 0 487.7 0 450.2 0C412.7 0 375.3 0 337.8 0C300.3 0 262.7 0 225.2 0C187.7 0 150.3 0 112.8 0C75.3 0 37.7 0 18.8 0L0 0Z" fill="#10224c"></path><path d="M0 289L18.8 280C37.7 271 75.3 253 112.8 254C150.3 255 187.7 275 225.2 288C262.7 301 300.3 307 337.8 300C375.3 293 412.7 273 450.2 272C487.7 271 525.3 289 562.8 286C600.3 283 637.7 259 675.2 261C712.7 263 750.3 291 787.8 301C825.3 311 862.7 303 881.3 299L900 295L900 221L881.3 226C862.7 231 825.3 241 787.8 235C750.3 229 712.7 207 675.2 199C637.7 191 600.3 197 562.8 184C525.3 171 487.7 139 450.2 137C412.7 135 375.3 163 337.8 185C300.3 207 262.7 223 225.2 218C187.7 213 150.3 187 112.8 185C75.3 183 37.7 205 18.8 216L0 227Z" fill="#233370"></path><path d="M0 403L18.8 419C37.7 435 75.3 467 112.8 478C150.3 489 187.7 479 225.2 467C262.7 455 300.3 441 337.8 439C375.3 437 412.7 447 450.2 444C487.7 441 525.3 425 562.8 420C600.3 415 637.7 421 675.2 432C712.7 443 750.3 459 787.8 458C825.3 457 862.7 439 881.3 430L900 421L900 293L881.3 297C862.7 301 825.3 309 787.8 299C750.3 289 712.7 261 675.2 259C637.7 257 600.3 281 562.8 284C525.3 287 487.7 269 450.2 270C412.7 271 375.3 291 337.8 298C300.3 305 262.7 299 225.2 286C187.7 273 150.3 253 112.8 252C75.3 251 37.7 269 18.8 278L0 287Z" fill="#3d4d8d"></path><path d="M0 505L18.8 513C37.7 521 75.3 537 112.8 545C150.3 553 187.7 553 225.2 546C262.7 539 300.3 525 337.8 518C375.3 511 412.7 511 450.2 509C487.7 507 525.3 503 562.8 506C600.3 509 637.7 519 675.2 524C712.7 529 750.3 529 787.8 533C825.3 537 862.7 545 881.3 549L900 553L900 419L881.3 428C862.7 437 825.3 455 787.8 456C750.3 457 712.7 441 675.2 430C637.7 419 600.3 413 562.8 418C525.3 423 487.7 439 450.2 442C412.7 445 375.3 435 337.8 437C300.3 439 262.7 453 225.2 465C187.7 477 150.3 487 112.8 476C75.3 465 37.7 433 18.8 417L0 401Z" fill="#233370"></path><path d="M0 601L18.8 601C37.7 601 75.3 601 112.8 601C150.3 601 187.7 601 225.2 601C262.7 601 300.3 601 337.8 601C375.3 601 412.7 601 450.2 601C487.7 601 525.3 601 562.8 601C600.3 601 637.7 601 675.2 601C712.7 601 750.3 601 787.8 601C825.3 601 862.7 601 881.3 601L900 601L900 551L881.3 547C862.7 543 825.3 535 787.8 531C750.3 527 712.7 527 675.2 522C637.7 517 600.3 507 562.8 504C525.3 501 487.7 505 450.2 507C412.7 509 375.3 509 337.8 516C300.3 523 262.7 537 225.2 544C187.7 551 150.3 551 112.8 543C75.3 535 37.7 519 18.8 511L0 503Z" fill="#10224c"></path></svg>